<?xml version="1.0" encoding="utf-8"?>
<!-- Generator: Adobe Illustrator 21.0.0, SVG Export Plug-In . SVG Version: 6.00 Build 0)  -->
<svg version="1.2" baseProfile="tiny" id="Layer_2" xmlns="http://www.w3.org/2000/svg" xmlns:xlink="http://www.w3.org/1999/xlink"
	 x="0px" y="0px" viewBox="0 0 161.735 321.7" overflow="scroll" xml:space="preserve">
<polygon fill="#FFFFFF" points="68.085,231.7 68.085,290.295 36.719,231.412 21.719,231.412 21.719,321.412 36.719,321.412 
	36.719,262.528 68.085,321.412 68.085,321.7 83.085,321.7 83.085,231.7 "/>
<polygon fill="#FFFFFF" points="115.202,306.412 115.202,231.412 100.202,231.412 100.202,321.412 155.202,321.412 155.202,306.412 
	"/>
<polygon fill="#F7CE09" points="80.618,0 83.867,8.795 93.235,9.167 85.875,14.975 88.416,24 80.618,18.795 72.819,24 75.36,14.975 
	68,9.167 77.368,8.795 "/>
<polygon fill="#F7CE09" points="12.618,68.5 15.867,77.295 25.235,77.667 17.875,83.475 20.416,92.5 12.618,87.295 4.819,92.5 
	7.36,83.475 0,77.667 9.368,77.295 "/>
<polygon fill="#F7CE09" points="149.118,68.5 152.367,77.295 161.735,77.667 154.375,83.475 156.916,92.5 149.118,87.295 
	141.319,92.5 143.86,83.475 136.5,77.667 145.868,77.295 "/>
<polygon fill="#F7CE09" points="138.618,102.5 141.867,111.295 151.235,111.667 143.875,117.475 146.416,126.5 138.618,121.295 
	130.819,126.5 133.36,117.475 126,111.667 135.368,111.295 "/>
<polygon fill="#F7CE09" points="21.446,102.5 24.695,111.295 34.064,111.667 26.704,117.475 29.244,126.5 21.446,121.295 
	13.648,126.5 16.189,117.475 8.829,111.667 18.197,111.295 "/>
<polygon fill="#F7CE09" points="138.618,34 141.867,42.795 151.235,43.167 143.875,48.975 146.416,58 138.618,52.795 130.819,58 
	133.36,48.975 126,43.167 135.368,42.795 "/>
<polygon fill="#F7CE09" points="21.446,34 24.695,42.795 34.064,43.167 26.704,48.975 29.244,58 21.446,52.795 13.648,58 
	16.189,48.975 8.829,43.167 18.197,42.795 "/>
<polygon fill="#F7CE09" points="80.618,136.386 83.867,145.18 93.235,145.553 85.875,151.361 88.416,160.386 80.618,155.18 
	72.819,160.386 75.36,151.361 68,145.553 77.368,145.18 "/>
<polygon fill="#F7CE09" points="115.687,128.386 118.936,137.18 128.305,137.553 120.945,143.361 123.485,152.386 115.687,147.18 
	107.889,152.386 110.43,143.361 103.07,137.553 112.438,137.18 "/>
<polygon fill="#F7CE09" points="47.187,128.386 50.436,137.18 59.805,137.553 52.445,143.361 54.985,152.386 47.187,147.18 
	39.389,152.386 41.93,143.361 34.57,137.553 43.938,137.18 "/>
<polygon fill="#F7CE09" points="115.687,10.386 118.936,19.18 128.305,19.553 120.945,25.361 123.485,34.386 115.687,29.18 
	107.889,34.386 110.43,25.361 103.07,19.553 112.438,19.18 "/>
<polygon fill="#F7CE09" points="47.187,10.386 50.436,19.18 59.805,19.553 52.445,25.361 54.985,34.386 47.187,29.18 39.389,34.386 
	41.93,25.361 34.57,19.553 43.938,19.18 "/>
</svg>
